<svg width="64" height="62" viewBox="0 0 64 62" fill="none" xmlns="http://www.w3.org/2000/svg">
<path fill-rule="evenodd" clip-rule="evenodd" d="M31.7828 14.2041L48.9532 31.5851L31.7827 48.9636L29.0362 46.25L43.5257 31.5849L29.0361 16.9175L31.7828 14.2041Z" fill="#282828"/>
<path fill-rule="evenodd" clip-rule="evenodd" d="M19.2129 29.8467L46.2396 29.8467L46.2396 33.7076L19.2129 33.7076L19.2129 29.8467Z" fill="#282828"/>
<path fill-rule="evenodd" clip-rule="evenodd" d="M33.1123 3.97815H31.5679C16.6414 3.97815 4.54114 16.0784 4.54114 31.0049C4.54114 45.9314 16.6414 58.0316 31.5679 58.0316H33.1123C48.0387 58.0316 60.139 45.9314 60.139 31.0049C60.139 16.0784 48.0387 3.97815 33.1123 3.97815ZM31.5679 0.117188C14.5091 0.117188 0.680176 13.9461 0.680176 31.0049C0.680176 48.0637 14.5091 61.8926 31.5679 61.8926H33.1123C50.1711 61.8926 64 48.0637 64 31.0049C64 13.9461 50.1711 0.117188 33.1123 0.117188H31.5679Z" fill="#282828"/>
</svg>
