<svg width="33" height="38" viewBox="0 0 33 38" fill="none" xmlns="http://www.w3.org/2000/svg">
<path d="M32.9991 0.463135V27.0355C32.9991 32.6562 28.4385 37.2168 22.8178 37.2168H9.14453C14.7653 37.2168 19.3258 32.6562 19.3258 27.0355V0.463135H32.9991Z" fill="white"/>
<path d="M9.22071 35.9714C14.2582 35.9714 18.3418 31.8878 18.3418 26.8503C18.3418 21.8129 14.2582 17.7292 9.22071 17.7292C4.18326 17.7292 0.0996094 21.8129 0.0996094 26.8503C0.0996094 31.8878 4.18326 35.9714 9.22071 35.9714Z" fill="white"/>
<path d="M12.1406 0.463135H18.342V16.972H12.1406C7.58851 16.972 4.35742 13.2697 4.35742 8.71756C4.35742 4.16543 7.58851 0.463135 12.1406 0.463135Z" fill="white"/>
</svg>
