<svg width="40" height="44" viewBox="0 0 40 44" fill="none" xmlns="http://www.w3.org/2000/svg">
<path d="M39.1 0V31.58C39.1 38.26 33.68 43.68 27 43.68H10.75C17.43 43.68 22.85 38.26 22.85 31.58V0H39.1Z" fill="#C4FE01"/>
<path d="M10.84 42.2C16.8268 42.2 21.68 37.3468 21.68 31.36C21.68 25.3733 16.8268 20.52 10.84 20.52C4.85323 20.52 0 25.3733 0 31.36C0 37.3468 4.85323 42.2 10.84 42.2Z" fill="#C4FE01"/>
<path d="M14.3101 0H21.6801V19.62H14.3101C8.90006 19.62 5.06006 15.22 5.06006 9.81C5.06006 4.4 8.90006 0 14.3101 0Z" fill="#C4FE01"/>
</svg>
