<svg width="19" height="17" viewBox="0 0 19 17" fill="none" xmlns="http://www.w3.org/2000/svg">
<path d="M1.78125 0C0.8075 0 0 0.8075 0 1.78125V14.8438C0 15.8175 0.8075 16.625 1.78125 16.625H17.2188C18.1925 16.625 19 15.8175 19 14.8438V1.78125C19 0.8075 18.1925 0 17.2188 0H1.78125ZM2.375 2.375H4.75V4.75H2.375V2.375ZM7.125 2.375H16.625V4.75H7.125V2.375ZM2.375 7.125H4.75V9.5H2.375V7.125ZM7.125 7.125H16.625V9.5H7.125V7.125ZM2.375 11.875H4.75V14.25H2.375V11.875ZM7.125 11.875H16.625V14.25H7.125V11.875Z" fill="white"/>
</svg>
