<svg width="393" height="163" viewBox="0 0 393 163" fill="none" xmlns="http://www.w3.org/2000/svg">
<rect width="393" height="163" rx="81.5" fill="#C4FE01"/>
<path d="M228.3 53.9C225.7 53.3 223.2 54.9 222.5 57.4L214.2 91.8H171.5L159.7 44.6C159.2 42.5 157.3 41 155.1 41H141.8C139.2 41 137 43.1 137 45.8C137 48.5 139.1 50.6 141.8 50.6H151.4L163.2 97.8C163.7 99.9 165.6 101.4 167.8 101.4H218C220.2 101.4 222.1 99.9 222.6 97.7L231.8 59.6C232.5 57.1 230.9 54.5 228.3 53.9Z" fill="black"/>
<path d="M174.5 122.7C179.194 122.7 183 118.894 183 114.2C183 109.506 179.194 105.7 174.5 105.7C169.806 105.7 166 109.506 166 114.2C166 118.894 169.806 122.7 174.5 122.7Z" fill="black"/>
<path d="M209 122.7C213.694 122.7 217.5 118.894 217.5 114.2C217.5 109.506 213.694 105.7 209 105.7C204.306 105.7 200.5 109.506 200.5 114.2C200.5 118.894 204.306 122.7 209 122.7Z" fill="black"/>
<path d="M192.9 84.1C203.1 84.1 211.3 75.9001 211.3 65.7001C211.3 55.5001 203.1 47.3 192.9 47.3C182.7 47.3 174.5 55.6 174.5 65.7001C174.5 75.9001 182.7 84.1 192.9 84.1ZM184.5 63.5C185.7 62.5 187.4 62.7 188.3 63.8L191 67L197.3 59.5C198.3 58.4 200 58.2 201.1 59.2C202.3 60.2 202.4 61.9 201.4 63L193 73C192.5 73.6 191.7 74 190.9 74C190.1 74 189.3 73.6 188.8 73L184 67.3C183.2 66.1 183.4 64.4 184.5 63.5Z" fill="black"/>
</svg>
