<svg width="393" height="163" viewBox="0 0 393 163" fill="none" xmlns="http://www.w3.org/2000/svg">
<rect width="393" height="163" rx="81.5" fill="#C4FE01"/>
<path d="M209.5 111.1H183.5C182.5 111.1 181.7 111.9 181.7 112.9V117.1C181.7 118.1 182.5 118.9 183.5 118.9H209.5C210.5 118.9 211.3 118.1 211.3 117.1V112.9C211.3 111.9 210.5 111.1 209.5 111.1Z" fill="black"/>
<path d="M200.6 61.2C200.1 60.3 199.3 59.6 198.4 59.2V80.7C200.6 81.5 202.1 83.6 202.1 86C202.1 89.1 199.6 91.5999 196.5 91.5999C193.4 91.5999 190.9 89.1 190.9 86C190.9 83.6 192.5 81.5 194.6 80.7V59.2999C193.7 59.6999 193 60.4 192.4 61.2L179 84.5999C178.1 86.0999 177.8 87.8999 178.2 89.5999L181.4 105.5C181.6 106.3 182.3 107 183.2 107H209.9C210.8 107 211.5 106.4 211.7 105.5L214.9 89.5999C215.3 87.8999 215 86.0999 214.1 84.5999L200.6 61.2Z" fill="black"/>
<path d="M158.7 82.8H157.141C159.681 65.5573 173.357 51.8812 190.6 49.3414V50.9V51.9H191.6H201.3H202.3V50.9V49.3414C219.543 51.8812 233.219 65.5573 235.759 82.8H234.2H233.2V83.8V93.5V94.5H234.2H243.9H244.9V93.5V83.8V82.8H243.9H241.587C239.664 67.947 230.666 55.3569 218.066 48.5H233.835C234.816 50.5121 236.81 51.8 239.1 51.8C242.352 51.8 245 49.1523 245 45.9C245 42.6477 242.352 40 239.1 40C236.796 40 234.823 41.3785 233.847 43.3H202.3V41.1V40.1H201.3H191.6H190.6V41.1V43.3H159.153C158.177 41.3785 156.204 40 153.9 40C150.648 40 148 42.6477 148 45.9C148 49.1523 150.648 51.8 153.9 51.8C156.204 51.8 158.177 50.4215 159.153 48.5H174.834C162.234 55.3569 153.236 67.947 151.313 82.8H149H148V83.8V93.5V94.5H149H158.7H159.7V93.5V83.8V82.8H158.7Z" fill="black" stroke="black" stroke-width="2"/>
</svg>
