<svg width="393" height="163" viewBox="0 0 393 163" fill="none" xmlns="http://www.w3.org/2000/svg">
<rect width="393" height="163" rx="81.5" fill="#C4FE01"/>
<path d="M230.4 79.5701C230.4 98.6701 214.8 114.27 195.7 114.27C176.6 114.27 161 98.6701 161 79.5701C161 61.6701 174.6 46.8701 192 45.0701L183.8 37.9701C182.1 36.5701 182 33.9701 183.4 32.3701C184.8 30.6701 187.4 30.5701 189 31.9701L204.8 45.6701C206.5 47.0701 206.6 49.6701 205.2 51.2701L191.6 67.1701C190.8 68.0701 189.7 68.5701 188.6 68.5701C187.7 68.5701 186.7 68.2701 186 67.5701C184.3 66.1701 184.2 63.5701 185.6 61.9701L193.3 53.0701C179.6 54.2701 169 65.7701 169 79.5701C169 94.2701 181 106.27 195.7 106.27C210.4 106.27 222.4 94.2701 222.4 79.5701C222.4 72.6701 219.8 66.1701 215.1 61.1701C213.6 59.5701 213.6 57.0701 215.2 55.4701C216.8 53.9701 219.3 53.9701 220.9 55.5701C227 62.1701 230.4 70.6701 230.4 79.5701Z" fill="black"/>
</svg>
