<svg width="291" height="121" viewBox="0 0 291 121" fill="none" xmlns="http://www.w3.org/2000/svg">
<rect x="5" y="5" width="281" height="111" rx="55.5" stroke="#C4FE01" stroke-width="10"/>
<path d="M159.816 72.0701L161.847 69.9322C164.33 67.3197 168.433 67.259 170.991 69.7962L171.093 69.8977C173.636 72.4205 173.636 76.5124 171.093 79.0355L170.991 79.137C168.434 81.6733 164.328 81.6122 161.847 79.001L159.816 76.8631L157.784 79.001C155.303 81.6122 151.197 81.6733 148.641 79.137L148.539 79.0355C145.995 76.5124 145.996 72.4205 148.539 69.8977L148.641 69.7962C151.198 67.259 155.302 67.3197 157.784 69.9322L159.816 72.0701ZM155.389 72.1731C154.179 70.9004 152.213 70.8713 150.969 72.106L150.867 72.2075C149.61 73.4547 149.609 75.4783 150.867 76.7257L150.969 76.8272C152.212 78.0608 154.18 78.0316 155.389 76.7602L157.568 74.4666L155.389 72.1731ZM164.243 76.7602C165.451 78.0316 167.419 78.0608 168.662 76.8272L168.765 76.7257C170.022 75.4783 170.022 73.4547 168.765 72.2075L168.662 72.106C167.418 70.8713 165.452 70.9004 164.243 72.1731L162.063 74.4666L164.243 76.7602ZM130.169 41.7997V36.8965C130.169 34.1923 132.375 32 135.1 32H148.286C151.008 32 153.216 34.1972 153.216 36.8965V41.7997H161.45C164.177 41.7997 166.386 43.9875 166.386 46.6954V63.0325C166.386 63.9345 165.649 64.6658 164.739 64.6658C163.83 64.6658 163.093 63.9345 163.093 63.0325V46.6954C163.093 45.7926 162.36 45.0663 161.45 45.0663H156.508V63.0325C156.508 63.9345 155.771 64.6658 154.862 64.6658C153.953 64.6658 153.216 63.9345 153.216 63.0325V45.0663H130.169V72.8322H141.693C142.602 72.8322 143.339 73.5635 143.339 74.4655C143.339 75.3676 142.602 76.0988 141.693 76.0988H121.935C119.208 76.0988 117 73.911 117 71.2032V46.6954C117 43.9931 119.214 41.7997 121.935 41.7997H130.169ZM126.877 45.0663H121.935C121.031 45.0663 120.292 45.7984 120.292 46.6954V71.2032C120.292 72.1059 121.025 72.8322 121.935 72.8322H126.877V45.0663ZM133.462 41.7997H149.924V36.8965C149.924 35.9993 149.187 35.2666 148.286 35.2666H135.1C134.195 35.2666 133.462 35.995 133.462 36.8965V41.7997Z" fill="#C4FE01"/>
</svg>
