<svg width="291" height="121" viewBox="0 0 291 121" fill="none" xmlns="http://www.w3.org/2000/svg">
<rect x="5" y="5" width="281" height="111" rx="55.5" stroke="#C4FE01" stroke-width="10"/>
<path d="M167.838 51.1562C166.916 50.2339 165.717 49.6805 164.426 49.6805H158.246V41.1031C158.246 37.6905 156.955 34.4625 154.557 32.1567C152.159 29.7588 149.023 28.4675 145.611 28.4675C142.198 28.4675 138.97 29.7588 136.665 32.1567C134.267 34.5547 132.975 37.6905 132.975 41.1031V49.7727H126.796C125.505 49.7727 124.306 50.3261 123.383 51.1562C122.461 52.0785 122 53.2775 122 54.5687V78.8252C122 80.1165 122.553 81.3154 123.383 82.2378C124.306 83.1601 125.505 83.6212 126.796 83.6212H164.426C165.717 83.6212 166.916 83.0678 167.838 82.2378C168.761 81.3154 169.222 80.1165 169.222 78.8252V54.4764C169.222 53.3697 168.761 52.1707 167.838 51.1562ZM145.611 31.4189C148.193 31.4189 150.684 32.4334 152.528 34.278C154.373 36.1226 155.387 38.6129 155.387 41.1953V49.8649H135.835V41.1953C135.835 38.6129 136.849 36.1226 138.694 34.278C140.538 32.4334 143.028 31.4189 145.611 31.4189ZM124.951 54.5687C124.951 54.1075 125.136 53.6464 125.505 53.2775C125.874 52.9085 126.335 52.7241 126.796 52.7241H164.426C164.887 52.7241 165.348 52.9085 165.809 53.2775C166.086 53.4619 166.271 53.7386 166.363 54.292V78.8252C166.363 79.2864 166.178 79.7475 165.809 80.1165C165.44 80.4854 165.072 80.6698 164.518 80.6698H126.796C126.335 80.6698 125.874 80.4854 125.505 80.1165C125.136 79.7475 124.951 79.2864 124.951 78.8252V54.5687Z" fill="#C4FE01"/>
<path d="M140.722 74.3983C140.446 74.675 140.354 74.9517 140.354 75.4128C140.354 75.7817 140.538 76.2429 140.722 76.4273C140.999 76.704 141.276 76.7963 141.737 76.7963L144.227 76.704V79.102C144.227 79.5632 144.412 79.9321 144.596 80.1166C144.873 80.3932 145.149 80.4855 145.611 80.4855C145.98 80.4855 146.441 80.301 146.625 80.1166C146.902 79.8399 146.994 79.5632 146.994 79.102V76.6118L149.853 76.5196C150.222 76.5196 150.683 76.3351 150.868 76.1507C151.144 75.874 151.237 75.5973 151.237 75.1361L150.96 67.1121C151.052 66.9276 150.96 66.7432 150.96 66.6509V66.5587C150.868 66.3743 150.776 66.1898 150.683 66.0976C150.591 66.0053 150.407 65.9131 150.13 65.8209C149.853 65.7286 149.669 65.7286 149.484 65.7286H142.844V60.5638H149.484C149.945 60.5638 150.314 60.3793 150.499 60.1948C150.776 59.9181 150.868 59.6415 150.868 59.1803C150.868 58.8114 150.683 58.3502 150.499 58.1658C150.222 57.8891 149.945 57.7968 149.484 57.7968H147.086L146.994 55.0299C146.994 54.661 146.81 54.1999 146.625 54.0154C146.348 53.7387 146.072 53.6465 145.611 53.6465C145.242 53.6465 144.781 53.8309 144.596 54.0154C144.319 54.2921 144.227 54.5688 144.227 55.0299L144.319 57.6124H141.737C141.368 57.6124 140.907 57.7968 140.722 57.9813C140.446 58.258 140.354 58.5347 140.354 58.9958V67.1121C140.354 67.481 140.538 67.9422 140.722 68.1266C140.999 68.4033 141.276 68.4956 141.737 68.4956H148.47L148.654 73.7527L141.829 73.9371C141.276 73.9371 140.907 74.2138 140.722 74.3983Z" fill="#C4FE01"/>
<path d="M134.912 77.995C135.097 78.0872 135.373 78.1795 135.558 78.1795C135.834 78.1795 136.111 78.0872 136.203 77.995C136.388 77.9028 136.664 77.7183 136.757 77.5338C136.941 77.2572 136.941 76.8882 136.849 76.4271C136.757 76.0582 136.572 75.6892 136.203 75.5048C134.635 74.6747 133.436 73.3835 132.514 71.7233C131.684 70.1554 131.315 68.4031 131.5 66.5585C131.869 65.3595 132.33 63.8838 133.252 62.5926C134.082 61.4858 135.097 60.4713 136.296 59.6412C136.48 59.549 136.664 59.4567 136.757 59.18C136.757 59.0878 136.849 59.0878 136.849 58.9956C136.941 58.9033 136.941 58.8111 137.033 58.7189C137.126 58.5344 137.126 58.2577 137.033 58.0733C137.033 57.8888 136.941 57.7044 136.849 57.6121C136.757 57.4277 136.664 57.3354 136.388 57.2432C136.296 57.2432 136.296 57.151 136.203 57.151C136.111 57.0587 136.019 57.0587 135.927 56.9665C135.742 56.8743 135.465 56.8743 135.281 56.9665C135.097 56.9665 134.82 57.0587 134.82 57.151C133.16 58.1655 129.286 61.0246 128.64 66.1895C128.364 68.5875 128.825 70.8933 129.932 72.9223C131.315 75.1359 132.975 76.796 134.912 77.995Z" fill="#C4FE01"/>
<path d="M154.373 59.7335C155.664 60.4714 156.771 61.4859 157.417 62.6849C158.247 63.7917 158.708 65.0829 158.985 66.5586C159.169 68.311 158.8 70.1556 157.97 71.7235C157.14 73.3836 155.849 74.6748 154.281 75.5049C154.096 75.5971 153.912 75.6894 153.82 75.9661C153.82 76.0583 153.727 76.0583 153.727 76.1505C153.635 76.2428 153.635 76.335 153.543 76.4272V76.5195V76.6117C153.543 76.7039 153.543 76.8884 153.543 77.0728C153.543 77.2573 153.635 77.4418 153.727 77.534C153.82 77.7184 154.004 77.9029 154.189 77.9951C154.373 78.0874 154.65 78.1796 154.834 78.1796C155.111 78.1796 155.388 78.0874 155.572 77.9951C157.601 76.8884 159.261 75.136 160.368 73.0147C161.475 70.9856 161.936 68.5877 161.659 66.2819C161.014 60.4714 156.218 57.52 155.572 57.1511C155.295 56.9666 154.926 56.9666 154.465 57.0589C154.004 57.1511 153.727 57.4278 153.543 57.7045C153.358 57.9812 153.358 58.3501 153.451 58.8112C153.82 59.2724 154.004 59.5491 154.373 59.7335Z" fill="#C4FE01"/>
</svg>
