<svg width="291" height="121" viewBox="0 0 291 121" fill="none" xmlns="http://www.w3.org/2000/svg">
<rect x="5" y="5" width="281" height="111" rx="55.5" stroke="#C4FE01" stroke-width="10"/>
<path d="M144.338 62.1742C144.338 62.7371 144.114 63.2769 143.716 63.6749C143.318 64.0729 142.778 64.2965 142.216 64.2965H118.122C117.559 64.2965 117.02 64.0729 116.622 63.6749C116.224 63.2769 116 62.7371 116 62.1742C116 61.6114 116.224 61.0716 116.622 60.6736C117.02 60.2756 117.559 60.052 118.122 60.052H142.216C142.778 60.052 143.318 60.2756 143.716 60.6736C144.114 61.0716 144.338 61.6114 144.338 62.1742ZM142.216 68.5409H124.489C123.926 68.5409 123.386 68.7645 122.988 69.1625C122.59 69.5604 122.367 70.1002 122.367 70.6631C122.367 71.2259 122.59 71.7657 122.988 72.1637C123.386 72.5617 123.926 72.7853 124.489 72.7853H142.216C142.778 72.7853 143.318 72.5617 143.716 72.1637C144.114 71.7657 144.338 71.2259 144.338 70.6631C144.338 70.1002 144.114 69.5604 143.716 69.1625C143.318 68.7645 142.778 68.5409 142.216 68.5409ZM142.216 77.0297H130.855C130.293 77.0297 129.753 77.2533 129.355 77.6513C128.957 78.0493 128.733 78.5891 128.733 79.1519C128.733 79.7148 128.957 80.2545 129.355 80.6525C129.753 81.0505 130.293 81.2741 130.855 81.2741H142.216C142.778 81.2741 143.318 81.0505 143.716 80.6525C144.114 80.2545 144.338 79.7148 144.338 79.1519C144.338 78.5891 144.114 78.0493 143.716 77.6513C143.318 77.2533 142.778 77.0297 142.216 77.0297ZM153.463 61.6097L161.999 53.0848C162.385 52.6846 162.599 52.1485 162.595 51.5921C162.59 51.0356 162.366 50.5034 161.973 50.1099C161.58 49.7164 161.047 49.4932 160.491 49.4884C159.934 49.4835 159.398 49.6975 158.998 50.084L150.467 58.6026C150.264 58.7983 150.102 59.0325 149.991 59.2914C149.88 59.5503 149.821 59.8288 149.819 60.1106C149.817 60.3924 149.87 60.6718 149.977 60.9327C150.084 61.1935 150.241 61.4304 150.44 61.6297C150.64 61.8289 150.877 61.9865 151.137 62.0932C151.398 62.1999 151.678 62.2536 151.96 62.2512C152.241 62.2487 152.52 62.1902 152.779 62.079C153.038 61.9677 153.272 61.8061 153.468 61.6034L153.463 61.6097ZM154.085 36.8563V32.8963H156.093C156.656 32.8963 157.195 32.6727 157.593 32.2747C157.991 31.8767 158.215 31.3369 158.215 30.7741C158.215 30.2112 157.991 29.6714 157.593 29.2734C157.195 28.8754 156.656 28.6519 156.093 28.6519H147.837C147.275 28.6519 146.735 28.8754 146.337 29.2734C145.939 29.6714 145.715 30.2112 145.715 30.7741C145.715 31.3369 145.939 31.8767 146.337 32.2747C146.735 32.6727 147.275 32.8963 147.837 32.8963H149.845V36.8521C144.927 37.2867 140.276 39.2741 136.562 42.5268L133.773 39.7383C133.376 39.3398 132.836 39.1157 132.272 39.1153C131.709 39.1149 131.169 39.3382 130.771 39.7361C130.372 40.1341 130.148 40.674 130.148 41.2372C130.147 41.8003 130.371 42.3406 130.768 42.7391L133.646 45.6147C131.893 47.8316 130.556 50.3483 129.701 53.0424C129.551 53.5737 129.613 54.1427 129.876 54.6287C130.138 55.1146 130.579 55.4791 131.106 55.6448C131.633 55.8106 132.203 55.7644 132.697 55.5163C133.19 55.2681 133.567 54.8374 133.748 54.3157C134.964 50.4435 137.387 47.0616 140.661 44.6639C143.936 42.2662 147.892 40.9783 151.95 40.9882H151.967H151.984C157.053 40.9899 161.913 43.005 165.495 46.5901C169.078 50.1752 171.09 55.0367 171.088 60.1051C171.087 65.1735 169.072 70.0337 165.486 73.6164C161.901 77.1991 157.04 79.2109 151.971 79.2092C151.602 79.2092 151.231 79.1901 150.802 79.1689C150.244 79.1493 149.702 79.35 149.291 79.7278C148.88 80.1055 148.635 80.6298 148.608 81.1871C148.587 81.7526 148.79 82.3034 149.173 82.7198C149.556 83.1363 150.088 83.3847 150.654 83.4112C151.093 83.4324 151.534 83.4536 151.971 83.4536C158.003 83.4893 163.814 81.1892 168.187 77.0355C172.56 72.8818 175.155 67.1967 175.43 61.1717C175.704 55.1466 173.636 49.2492 169.658 44.7152C165.681 40.1812 160.103 37.3626 154.094 36.8499L154.085 36.8563Z" fill="#C4FE01"/>
</svg>
