<svg width="291" height="121" viewBox="0 0 291 121" fill="none" xmlns="http://www.w3.org/2000/svg">
<rect x="5" y="5" width="281" height="111" rx="55.5" stroke="#C4FE01" stroke-width="10"/>
<path d="M159.841 56.1431C157.024 56.1431 154.735 58.4317 154.735 61.2484C154.735 62.3047 155.029 63.2436 155.557 64.0652L152.388 67.9382C151.801 67.7035 151.156 67.5861 150.51 67.5861C149.865 67.5861 149.219 67.7035 148.632 67.9382L145.463 64.0652C145.991 63.2436 146.285 62.3047 146.285 61.2484C146.285 58.4317 143.996 56.1431 141.18 56.1431C138.363 56.1431 136.074 58.4317 136.074 61.2484C136.074 62.3047 136.368 63.2436 136.896 64.0652L133.727 67.9382C133.14 67.7035 132.495 67.5861 131.849 67.5861C129.032 67.5861 126.744 69.8748 126.744 72.6915C126.744 75.5083 129.032 77.7969 131.849 77.7969C134.666 77.7969 136.954 75.5083 136.954 72.6915C136.954 71.6352 136.661 70.6963 136.133 69.9334L139.302 66.0604C139.889 66.2951 140.534 66.4125 141.18 66.4125C141.825 66.4125 142.471 66.2951 143.057 66.0604L146.226 69.9334C145.698 70.755 145.405 71.6939 145.405 72.6915C145.405 75.5083 147.693 77.7969 150.51 77.7969C153.327 77.7969 155.615 75.5083 155.615 72.6915C155.615 71.6352 155.322 70.6963 154.794 69.8748L157.963 66.0017C158.55 66.2365 159.195 66.3538 159.841 66.3538C162.657 66.3538 164.946 64.0652 164.946 61.2484C164.946 58.4317 162.657 56.1431 159.841 56.1431ZM131.908 74.628C130.793 74.628 129.913 73.7478 129.913 72.6328C129.913 71.5179 130.793 70.6376 131.908 70.6376C133.023 70.6376 133.903 71.5179 133.903 72.6328C133.903 73.7478 133.023 74.628 131.908 74.628ZM139.184 61.2484C139.184 60.1335 140.065 59.2532 141.18 59.2532C142.295 59.2532 143.175 60.1335 143.175 61.2484C143.175 62.3634 142.295 63.2436 141.18 63.2436C140.065 63.2436 139.184 62.3634 139.184 61.2484ZM150.51 74.628C149.395 74.628 148.515 73.7478 148.515 72.6328C148.515 71.5179 149.395 70.6376 150.51 70.6376C151.625 70.6376 152.505 71.5179 152.505 72.6328C152.564 73.7478 151.625 74.628 150.51 74.628ZM159.841 63.2436C158.726 63.2436 157.845 62.3634 157.845 61.2484C157.845 60.1335 158.726 59.2532 159.841 59.2532C160.956 59.2532 161.836 60.1335 161.836 61.2484C161.836 62.3634 160.956 63.2436 159.841 63.2436Z" fill="#B9EF02"/>
<path d="M169.112 35.1348H122.636C120.054 35.1348 118 37.1887 118 39.7707V81.846C118 84.428 120.054 86.4819 122.636 86.4819H169.112C171.694 86.4819 173.748 84.428 173.748 81.846V39.7707C173.748 37.1887 171.694 35.1348 169.112 35.1348ZM122.636 38.1863H169.112C169.993 38.1863 170.638 38.8904 170.638 39.712V47.4581H121.11V39.7707C121.11 38.8904 121.756 38.1863 122.636 38.1863ZM169.112 83.3717H122.636C121.756 83.3717 121.11 82.6676 121.11 81.846V50.5683H170.697V81.846C170.638 82.6676 169.993 83.3717 169.112 83.3717Z" fill="#B9EF02"/>
<path d="M125.922 44.6412C126.926 44.6412 127.741 43.8268 127.741 42.8221C127.741 41.8174 126.926 41.0029 125.922 41.0029C124.917 41.0029 124.103 41.8174 124.103 42.8221C124.103 43.8268 124.917 44.6412 125.922 44.6412Z" fill="#B9EF02"/>
<path d="M131.555 44.6412C132.56 44.6412 133.375 43.8268 133.375 42.8221C133.375 41.8174 132.56 41.0029 131.555 41.0029C130.551 41.0029 129.736 41.8174 129.736 42.8221C129.736 43.8268 130.551 44.6412 131.555 44.6412Z" fill="#B9EF02"/>
<path d="M137.189 44.6412C138.193 44.6412 139.008 43.8268 139.008 42.8221C139.008 41.8174 138.193 41.0029 137.189 41.0029C136.184 41.0029 135.37 41.8174 135.37 42.8221C135.37 43.8268 136.184 44.6412 137.189 44.6412Z" fill="#B9EF02"/>
</svg>
