<svg width="291" height="121" viewBox="0 0 291 121" fill="none" xmlns="http://www.w3.org/2000/svg">
<rect x="5" y="5" width="281" height="111" rx="55.5" stroke="#C4FE01" stroke-width="10"/>
<path d="M167.491 43.6007L165.335 40.9248C164.889 40.4044 164.517 39.2152 164.517 38.4718L164.666 35.0526C164.74 33.1943 163.402 31.4104 161.693 30.8901L158.422 29.9981C157.753 29.8494 156.713 29.1061 156.341 28.5115L154.483 25.6869C153.739 24.5719 152.401 23.8286 150.989 23.8286C150.543 23.8286 150.023 23.9029 149.577 24.0516L146.455 25.4639C146.158 25.6126 145.637 25.6126 145.191 25.6126C144.671 25.6126 144.225 25.5382 143.928 25.3896L140.731 24.2003C140.285 24.0516 139.839 23.9773 139.393 23.9773C137.981 23.9773 136.643 24.6463 135.9 25.8356L134.042 28.6601C133.67 29.2548 132.629 29.9981 131.96 30.1468L128.69 31.0387C126.906 31.4847 125.568 33.343 125.717 35.2013L125.865 38.6205C125.865 39.2895 125.494 40.5531 125.048 41.0734L122.892 43.6007C121.703 45.013 121.703 47.3172 122.892 48.7295L125.048 51.4055C125.494 51.9258 125.865 53.1151 125.865 53.8584L125.717 57.2776C125.642 59.1359 126.98 60.9198 128.69 61.4402L131.96 62.3321C132.258 62.4065 132.629 62.6295 133.001 62.8524L128.318 93.3282C128.095 94.5918 128.541 95.4095 128.913 95.8554C129.359 96.3758 130.028 96.6731 130.771 96.6731C131.291 96.6731 131.886 96.5244 132.481 96.1528L140.137 91.7672C140.36 91.6186 140.731 91.5443 141.029 91.5443C141.549 91.5443 142.069 91.6929 142.367 91.9159L149.057 97.4907C149.726 98.0111 150.394 98.3084 151.138 98.3084C152.327 98.3084 153.665 97.4164 153.665 95.3351L153.739 88.2737C153.962 88.2737 154.111 88.348 154.26 88.4223L158.72 90.6523C160.058 91.3213 161.47 91.0983 162.213 90.132C162.585 89.686 162.956 88.794 162.659 87.5304L157.159 62.8524C157.53 62.5551 157.976 62.3321 158.274 62.2578L161.544 61.3658C163.328 60.9198 164.666 59.0616 164.517 57.2033V53.8584C164.517 53.1894 164.889 51.9258 165.335 51.4055L167.491 48.7295C168.606 47.3172 168.606 45.0873 167.491 43.6007ZM144.448 89.463C143.556 88.7197 142.367 88.348 141.103 88.348C140.211 88.348 139.319 88.571 138.576 88.9427L131.663 92.8822L135.751 66.2717L135.974 66.569C136.718 67.684 138.056 68.4273 139.468 68.4273C139.914 68.4273 140.434 68.3529 140.88 68.2043L144.076 67.015C144.374 66.8663 144.894 66.792 145.34 66.792C145.786 66.792 146.306 66.8663 146.604 67.015L149.8 68.2043C150.171 68.3529 150.617 68.4273 150.989 68.4273L150.617 94.4432L144.448 89.463ZM155.746 85.5234C155.152 85.2261 154.557 85.0774 153.888 85.0774L154.111 67.0893C154.26 66.9407 154.408 66.792 154.483 66.569L154.706 66.1973L159.389 87.3074L155.746 85.5234ZM164.963 46.7226L162.808 49.3985C161.841 50.5878 161.247 52.5204 161.321 54.007L161.47 57.4263C161.47 57.7236 161.172 58.1696 160.875 58.3182L157.605 59.2102C156.192 59.5819 154.483 60.8455 153.665 62.0348L151.807 64.8594C151.658 65.0824 151.361 65.231 150.989 65.231C150.915 65.231 150.84 65.231 150.766 65.1567L147.57 63.9674C146.901 63.7444 146.009 63.5958 145.117 63.5958C144.225 63.5958 143.333 63.7444 142.664 63.9674L139.468 65.1567C139.393 65.1567 139.319 65.231 139.245 65.231C138.947 65.231 138.576 65.0824 138.427 64.8594L136.569 62.0348C135.751 60.7712 134.042 59.5819 132.629 59.2102L129.359 58.3182C129.061 58.2439 128.69 57.7979 128.764 57.4263L128.913 54.007C128.987 52.5204 128.318 50.5135 127.426 49.3985L125.271 46.7226C125.048 46.4996 125.048 45.905 125.271 45.682L127.426 43.006C128.392 41.8167 128.987 39.8841 128.913 38.3975L128.764 34.9783C128.764 34.681 129.061 34.235 129.359 34.0863L132.629 33.1943C134.042 32.8227 135.751 31.559 136.569 30.3698L138.427 27.5452C138.576 27.3222 138.873 27.1735 139.245 27.1735C139.319 27.1735 139.393 27.1735 139.468 27.2478L142.664 28.4371C143.333 28.6601 144.225 28.8088 145.117 28.8088C146.009 28.8088 146.901 28.6601 147.57 28.4371L150.766 27.2478C150.84 27.2478 150.915 27.1735 150.989 27.1735C151.286 27.1735 151.658 27.3222 151.807 27.5452L153.665 30.3698C154.483 31.6334 156.192 32.8227 157.605 33.1943L160.875 34.0863C161.172 34.1606 161.544 34.6066 161.47 34.9783L161.321 38.3975C161.247 39.8841 161.916 41.8911 162.808 43.006L164.963 45.682C165.186 45.905 165.186 46.4996 164.963 46.7226Z" fill="#C4FE01"/>
<path d="M145.191 32.6738C137.758 32.6738 131.663 38.769 131.663 46.2021C131.663 53.6352 137.758 59.7303 145.191 59.7303C152.624 59.7303 158.72 53.6352 158.72 46.2021C158.72 38.769 152.624 32.6738 145.191 32.6738ZM145.191 56.4598C139.542 56.4598 134.934 51.8513 134.934 46.2021C134.934 40.5529 139.542 35.9444 145.191 35.9444C150.841 35.9444 155.449 40.5529 155.449 46.2021C155.449 51.8513 150.841 56.4598 145.191 56.4598Z" fill="#C4FE01"/>
</svg>
