<svg width="392" height="163" viewBox="0 0 392 163" fill="none" xmlns="http://www.w3.org/2000/svg">
<rect x="5" y="5" width="382" height="153" rx="76.5" stroke="#C4FE01" stroke-width="10"/>
<path d="M160.2 83.3C161.4 83.3 162.4 82.3 162.4 81.2C162.5 78.6 162.8 76.1 163.4 73.7C163.7 72.5 162.9 71.3 161.8 71.1C161.2 71 160.6 71.1 160.1 71.4C159.6 71.7 159.3 72.2 159.1 72.8C158.5 75.5 158.1 78.3 158 81.2C158 81.8 158.2 82.3 158.6 82.8C159 83.1 159.6 83.3 160.2 83.3Z" fill="#C4FE01"/>
<path d="M237.3 73.8C237.5 74.8 238.4 75.5 239.4 75.5C239.6 75.5 239.8 75.5 239.9 75.4C240.5 75.3 241 74.9 241.3 74.4C241.6 73.9 241.7 73.3 241.6 72.7C241 69.9 240.1 67.2 238.9 64.7C238.4 63.6 237.1 63.1 236 63.6C235.5 63.8 235.1 64.3 234.9 64.8C234.7 65.4 234.7 65.9 234.9 66.5C236 69 236.8 71.4 237.3 73.8Z" fill="#C4FE01"/>
<path d="M192.4 45.1C192.5 45.1 192.7 45.1 192.8 45.1C195.2 44.6 197.7 44.4 200.3 44.4C201.5 44.4 202.5 43.4 202.5 42.2C202.5 41 201.5 40 200.3 40C197.5 40 194.7 40.3 192 40.8C190.8 41 190 42.2 190.3 43.4C190.5 44.3 191.4 45.1 192.4 45.1Z" fill="#C4FE01"/>
<path d="M209.7 45.4999C212.1 46.0999 214.5 46.9999 216.8 48.0999C217.1 48.1999 217.4 48.2999 217.8 48.2999H218.1C218.8 48.1999 219.5 47.6999 219.8 47.0999C220 46.4999 220.1 45.8999 219.9 45.3999C219.7 44.7999 219.3 44.3999 218.8 44.0999C216.2 42.8999 213.6 41.8999 210.8 41.1999C209.6 40.8999 208.4 41.5999 208.1 42.7999C207.9 43.9999 208.6 45.1999 209.7 45.4999Z" fill="#C4FE01"/>
<path d="M163.3 90.5C163 89.4 161.8 88.6 160.7 88.9C159.5 89.2 158.8 90.3 159 91.5C159.6 94.3 160.5 96.9 161.7 99.5C162.1 100.3 162.8 100.8 163.7 100.8H164.4V100.7C164.5 100.7 164.5 100.7 164.6 100.6C165.7 100.1 166.2 98.8 165.7 97.7C164.6 95.4 163.8 93 163.3 90.5Z" fill="#C4FE01"/>
<path d="M230 58.5999C230.3 59.0999 230.9 59.2999 231.4 59.3999H231.7C232.2 59.3999 232.7 59.1999 233.1 58.8999C234 58.0999 234.2 56.7999 233.4 55.7999C231.6 53.5999 229.7 51.5999 227.5 49.7999C226.6 48.9999 225.2 49.0999 224.4 50.0999C223.6 50.9999 223.7 52.3999 224.7 53.1999C226.6 54.7999 228.4 56.5999 230 58.5999Z" fill="#C4FE01"/>
<path d="M170.6 105.8C169.8 104.9 168.5 104.7 167.5 105.5C166.6 106.3 166.4 107.6 167.1 108.6C168.8 110.8 170.8 112.8 173 114.7C173.4 115 173.9 115.2 174.4 115.2H175.1V114.9C175.5 114.8 175.8 114.5 176.1 114.2C176.9 113.3 176.8 111.9 175.8 111.1C173.9 109.6 172.2 107.7 170.6 105.8Z" fill="#C4FE01"/>
<path d="M170.9 58.3V63C170.9 64.2 171.9 65.2 173.1 65.2C174.3 65.2 175.3 64.2 175.3 63V53C175.3 52.6 175.2 52.2 175 51.9C175.4 52.1 175.8 52.3 176.2 52.3H176.9V52.2C177.1 52.1 177.3 52 177.5 51.9C179.5 50.4 181.7 49.1 183.9 48C185 47.5 185.4 46.2 184.9 45.1C184.4 44 183.1 43.6 182 44.1C179.5 45.3 177.1 46.8 174.8 48.5C174.4 48.8 174.1 49.3 174 49.9C173.9 50.4 174 50.9 174.3 51.3C174 51.1 173.6 51 173.1 51H163.1C161.9 51 160.9 52 160.9 53.2C160.9 54.4 161.9 55.4 163.1 55.4H167.8C167.6 55.5 167.5 55.7 167.3 55.8C165.5 58 164 60.4 162.7 62.9C162.4 63.4 162.4 64 162.6 64.6C162.8 65.2 163.2 65.6 163.7 65.9C164 66.1 164.4 66.2 164.7 66.2C165.5 66.2 166.3 65.7 166.7 65C167.9 62.7 169.3 60.6 170.8 58.7C170.8 58.5 170.8 58.4 170.9 58.3Z" fill="#C4FE01"/>
<path d="M207.8 119.4C205.3 119.9 202.8 120.1 200.3 120.1H200.1C198.9 120.1 197.9 121.1 197.9 122.3C197.9 123.5 198.9 124.5 200.1 124.5H200.3C203.1 124.5 205.9 124.2 208.7 123.7C209.9 123.5 210.6 122.3 210.4 121.1C210.2 119.9 209 119.2 207.8 119.4Z" fill="#C4FE01"/>
<path d="M242 81.7C241.6 81.3 241 81 240.5 81C239.9 81 239.4 81.2 238.9 81.6C238.5 82 238.2 82.6 238.2 83.1C238.1 85.6 237.8 88.2 237.3 90.6C237 91.8 237.8 93 238.9 93.2C239.1 93.2 239.2 93.3 239.4 93.3C240.4 93.3 241.3 92.6 241.5 91.6C242.1 88.9 242.5 86 242.5 83.2C242.6 82.7 242.4 82.2 242 81.7Z" fill="#C4FE01"/>
<path d="M237.8 109.2H232.8C233 109.1 233.2 108.9 233.4 108.7C235.2 106.5 236.7 104.1 238 101.6C238.6 100.5 238.1 99.2 237 98.6C235.9 98.1 234.6 98.5 234 99.6C232.9 101.8 231.5 103.9 230 105.8V101.4C230 100.2 229 99.2 227.8 99.2C226.6 99.2 225.6 100.2 225.6 101.4V111.4C225.6 111.9 225.7 112.3 226 112.6C225.2 111.9 224 111.8 223.2 112.5C221.2 114 219 115.3 216.8 116.4C215.7 116.9 215.2 118.2 215.8 119.3C216.2 120.1 216.9 120.5 217.8 120.5C218.1 120.5 218.4 120.4 218.8 120.3C221.3 119.1 223.7 117.6 226 115.9C226.5 115.5 226.8 115 226.9 114.4C227 113.9 226.8 113.3 226.5 112.9C226.9 113.3 227.4 113.5 228 113.5H237.9C239.1 113.5 240.1 112.5 240.1 111.3C240.1 110.1 239 109.2 237.8 109.2Z" fill="#C4FE01"/>
<path d="M190.8 118.9C188.4 118.3 186 117.4 183.7 116.3C183.2 116 182.6 116 182 116.2C181.4 116.4 181 116.8 180.7 117.3C180.2 118.4 180.6 119.7 181.7 120.2C184.2 121.4 186.9 122.4 189.6 123.1C189.8 123.1 190 123.2 190.1 123.2H190.4C191.3 123.1 192 122.4 192.2 121.6C192.7 120.4 192 119.2 190.8 118.9Z" fill="#C4FE01"/>
<path d="M229.1 82.1999C229.1 66.2999 216.2 53.3999 200.3 53.3999C184.4 53.3999 171.6 66.3999 171.6 82.1999C171.6 98.0999 184.5 111 200.4 111C216.3 111 229.1 98.0999 229.1 82.1999ZM214.4 79.1999C214.4 71.5999 208.2 65.3999 200.6 65.3999C193 65.3999 186.8 71.5999 186.8 79.1999C186.8 82.2999 187.8 85.2999 189.7 87.6999C186 90.0999 183.1 93.7999 181.8 98.0999C178 93.5999 176 88.0999 176 82.1999C176 68.7999 186.9 57.8999 200.3 57.8999C213.7 57.8999 224.7 68.7999 224.7 82.1999C224.7 87.9999 222.6 93.5999 218.8 97.9999C217.5 93.8999 214.8 90.2999 211.3 87.8999C213.3 85.4999 214.4 82.3999 214.4 79.1999ZM194.2 90.1999C194.9 89.8999 195.4 89.1999 195.5 88.4999C195.6 87.6999 195.3 86.9999 194.7 86.4999C192.5 84.6999 191.2 81.9999 191.2 79.1999C191.2 73.9999 195.4 69.7999 200.6 69.7999C205.8 69.7999 210 73.9999 210 79.1999C210 82.0999 208.7 84.8999 206.3 86.5999C205.7 87.0999 205.4 87.7999 205.4 88.5999C205.5 89.3999 206 89.9999 206.6 90.3999C211 92.4999 214.2 96.6999 215 101.6C210.7 104.9 205.6 106.6 200.2 106.6C194.8 106.6 189.7 104.9 185.4 101.6C186.3 96.4999 189.6 92.1999 194.2 90.1999Z" fill="#C4FE01"/>
</svg>
